<?xml version="1.0" encoding="UTF-8"?>
<!-- Created with Inkscape (http://www.inkscape.org/) -->
<svg version="1.1" viewBox="0 0 200 177" xmlns="http://www.w3.org/2000/svg">
 <defs>
  <marker id="ArrowWideRounded" overflow="visible" markerHeight="1" markerWidth="1" orient="auto-start-reverse" preserveAspectRatio="xMidYMid" viewBox="0 0 1 1">
   <path transform="rotate(180 .12 0)" d="m3-3-3 3 3 3" fill="none" stroke="context-stroke" stroke-linecap="round"/>
  </marker>
  <marker id="Triangle" overflow="visible" markerHeight="1" markerWidth="1" orient="auto-start-reverse" preserveAspectRatio="xMidYMid" viewBox="0 0 1 1">
   <path transform="scale(.5)" d="m5.8 0-8.6 5v-10z" fill="context-stroke" fill-rule="evenodd" stroke="context-stroke" stroke-width="1pt"/>
  </marker>
 </defs>
 <g transform="translate(-6.4 -32)">
  <g fill="#fff">
   <path transform="matrix(.8 0 0 .8 -12 35)" d="m100 37c-.36-2 5.9-5.7 12-4.7 5.8 1 11 6.8 9.3 12-1.9 5.5-11 11-13 9.9-2.3-.91 2.2-8.1.93-12-1.2-3.7-8.2-3.9-8.6-5.8z" stroke="#808000"/>
   <path d="m33 113v-64" marker-end="url(#Triangle)" stroke="#000" stroke-width=".4"/>
   <path d="m28 109h64" marker-end="url(#Triangle)" stroke="#000" stroke-width=".4"/>
  </g>
  <text x="80.578506" y="114.07944" fill="#000000" font-family="sans-serif" font-size="4.2px" stroke-width=".11" style="line-height:1.25" xml:space="preserve"><tspan x="80.578506" y="114.07944" stroke-width=".11">Easting</tspan></text>
  <text x="12.78094" y="51.912521" fill="#000000" font-family="sans-serif" font-size="4.2px" stroke-width=".11" style="line-height:1.25" xml:space="preserve"><tspan x="12.78094" y="51.912521" stroke-width=".11">Northing</tspan></text>
  <circle cx="33" cy="109" r="1.7" fill="#f00" fill-rule="evenodd" stroke-width=".21"/>
  <text x="35.193676" y="113.61637" fill="#ff0000" font-family="sans-serif" font-size="4.2px" stroke-width=".11" style="line-height:1.25" xml:space="preserve"><tspan x="35.193676" y="113.61637" fill="#ff0000" stroke-width=".11">Origin</tspan></text>
  <text x="75.062767" y="52.257256" fill="#808000" font-family="sans-serif" font-size="4.2px" stroke-width=".11" style="line-height:1.25" xml:space="preserve"><tspan x="75.062767" y="52.257256">Defined </tspan><tspan x="75.062767" y="57.541393">geometry</tspan></text>
  <circle cx="74" cy="78" r="1.7" fill="#008000" fill-rule="evenodd" stroke-width=".21"/>
  <path d="m74 109v-30" fill="#fff" stroke="#0f0" stroke-dasharray="1.59773, 0.399433" stroke-width=".4"/>
  <path d="m33 78h41" fill="#fff" stroke="#0f0" stroke-dasharray="1.59773, 0.399433" stroke-width=".4"/>
  <text x="18.366852" y="39.517879" fill="#000000" font-family="sans-serif" font-size="5.3px" stroke-width=".13" style="line-height:1.25" xml:space="preserve"><tspan x="18.366852" y="39.517879" font-weight="bold" stroke-width=".13">British National Grid (BNG)</tspan></text>
  <g fill="#fff">
   <path transform="matrix(.8 0 0 .8 86 59)" d="m100 37c-.36-2 5.9-5.7 12-4.7 5.8 1 11 6.8 9.3 12-1.9 5.5-11 11-13 9.9-2.3-.91 2.2-8.1.93-12-1.2-3.7-8.2-3.9-8.6-5.8z" stroke="#808000"/>
   <path d="m131 48v64" marker-end="url(#Triangle)" stroke="#000" stroke-width=".4"/>
   <path d="m127 52h64" marker-end="url(#Triangle)" stroke="#000" stroke-width=".4"/>
  </g>
  <text x="187.98674" y="57.354523" fill="#000000" font-family="sans-serif" font-size="4.2px" stroke-width=".11" style="line-height:1.25" xml:space="preserve"><tspan x="187.98674" y="57.354523" stroke-width=".11">x</tspan></text>
  <text x="126.08847" y="111.10911" fill="#000000" font-family="sans-serif" font-size="4.2px" stroke-width=".11" style="line-height:1.25" xml:space="preserve"><tspan x="126.08847" y="111.10911" stroke-width=".11">y</tspan></text>
  <circle cx="131" cy="52" r="1.7" fill="#f00" fill-rule="evenodd" stroke-width=".21"/>
  <text x="133.24437" y="57.501732" fill="#ff0000" font-family="sans-serif" font-size="4.2px" stroke-width=".11" style="line-height:1.25" xml:space="preserve"><tspan x="133.24437" y="57.501732" fill="#ff0000" stroke-width=".11">Origin</tspan></text>
  <text x="173.52031" y="76.46479" fill="#808000" font-family="sans-serif" font-size="4.2px" stroke-width=".11" style="line-height:1.25" xml:space="preserve"><tspan x="173.52031" y="76.46479">Defined </tspan><tspan x="173.52031" y="81.748924">geometry</tspan></text>
  <circle cx="172" cy="102" r="1.7" fill="#008000" fill-rule="evenodd" stroke-width=".21"/>
  <path d="m172 102v-51" fill="#fff" stroke="#0f0" stroke-dasharray="1.59773, 0.399433" stroke-width=".4"/>
  <path d="m131 102h41" fill="#fff" stroke="#0f0" stroke-dasharray="1.59773, 0.399433" stroke-width=".4"/>
  <text x="121.29973" y="39.300922" fill="#000000" font-family="sans-serif" font-size="5.3px" stroke-width=".13" style="line-height:1.25" xml:space="preserve"><tspan x="121.29973" y="39.300922" font-weight="bold" stroke-width=".13">Canvas Coordinates System</tspan></text>
  <text x="64.016846" y="136.75902" fill="#000000" font-family="sans-serif" font-size="5.3px" stroke-width=".13" style="line-height:1.25" xml:space="preserve"><tspan x="64.016846" y="136.75902" font-weight="bold" stroke-width=".13">BNG → Canvas conversion process</tspan></text>
  <g transform="translate(3.9 3.5)">
   <text x="27.571102" y="200.67494" fill="#000000" font-family="sans-serif" font-size="5.3px" stroke-width=".13" style="line-height:1.25" xml:space="preserve"><tspan x="27.571102" y="200.67494" stroke-width=".13">Step 1</tspan></text>
   <g transform="translate(.16)">
    <g fill="#fff">
     <path transform="matrix(.56 0 0 .56 -12 134)" d="m100 37c-.36-2 5.9-5.7 12-4.7 5.8 1 11 6.8 9.3 12-1.9 5.5-11 11-13 9.9-2.3-.91 2.2-8.1.93-12-1.2-3.7-8.2-3.9-8.6-5.8z" stroke="#808000"/>
     <path d="m20 189v-45" marker-end="url(#Triangle)" stroke="#000" stroke-width=".28"/>
     <path d="m17 186h45" marker-end="url(#Triangle)" stroke="#000" stroke-width=".28"/>
    </g>
    <text x="53.265446" y="189.63385" fill="#000000" font-family="sans-serif" font-size="3px" stroke-width=".074" style="line-height:1.25" xml:space="preserve"><tspan x="53.265446" y="189.63385" stroke-width=".074">Easting</tspan></text>
    <text x="5.9265242" y="146.22646" fill="#000000" font-family="sans-serif" font-size="3px" stroke-width=".074" style="line-height:1.25" xml:space="preserve"><tspan x="5.9265242" y="146.22646" stroke-width=".074">Northing</tspan></text>
    <circle cx="20" cy="186" r="1.2" fill="#f00" fill-rule="evenodd" stroke-width=".15"/>
    <text x="21.575975" y="189.3105" fill="#ff0000" font-family="sans-serif" font-size="3px" stroke-width=".074" style="line-height:1.25" xml:space="preserve"><tspan x="21.575975" y="189.3105" fill="#ff0000" stroke-width=".074">Origin</tspan></text>
    <text x="49.414139" y="146.46716" fill="#808000" font-family="sans-serif" font-size="3px" stroke-width=".074" style="line-height:1.25" xml:space="preserve"><tspan x="49.414139" y="146.46716">Defined </tspan><tspan x="49.414139" y="150.15675">geometry</tspan></text>
    <rect x="44" y="152" width="13" height="14" fill="none" stroke="#f0f" stroke-width=".22"/>
    <text x="29.419968" y="154.45045" fill="#ff00ff" font-family="sans-serif" font-size="3px" stroke-width=".074" style="line-height:1.25" xml:space="preserve"><tspan x="29.419968" y="154.45045">Bounding</tspan><tspan x="29.419968" y="158.14005">box</tspan></text>
    <circle cx="44" cy="165" r="1.2" fill="#800000" fill-rule="evenodd" stroke-width=".15"/>
    <path d="m42 167-19 17" fill="none" marker-end="url(#ArrowWideRounded)" stroke="#f60" stroke-dasharray="1.62037, 0.405092" stroke-width=".41"/>
    <text transform="translate(-2 -.86)" x="40.969841" y="173.35275" fill="#ff6600" font-family="sans-serif" font-size="2.1px" stroke-width=".066" style="inline-size:24.1492;line-height:1.25;white-space:pre" xml:space="preserve"><tspan x="40.969841" y="173.35275">Change bottom-right </tspan><tspan x="40.969841" y="175.9986">point of whole object </tspan><tspan x="40.969841" y="178.64444">bounding box to </tspan><tspan x="40.969841" y="181.29029">coincide with plot origin</tspan></text>
   </g>
  </g>
  <g transform="translate(14 3.5)">
   <text x="88.972878" y="200.67494" fill="#000000" font-family="sans-serif" font-size="5.3px" stroke-width=".13" style="line-height:1.25" xml:space="preserve"><tspan x="88.972878" y="200.67494" stroke-width=".13">Step 2</tspan></text>
   <text transform="translate(55 -3.3)" x="40.969841" y="173.35275" fill="#008000" font-family="sans-serif" font-size="2.1px" stroke-width=".066" style="inline-size:26.8954;line-height:1.25;white-space:pre" xml:space="preserve"><tspan x="40.969841" y="173.35275">Flip image, in preparation </tspan><tspan x="40.969841" y="175.9986">for flipping axis from </tspan><tspan x="40.969841" y="178.64444">northing to y, which go in </tspan><tspan x="40.969841" y="181.29029">opposite directions</tspan></text>
   <g>
    <path transform="matrix(.56 0 0 .56 27 155)" d="m100 37c-.36-2 5.9-5.7 12-4.7 5.8 1 11 6.8 9.3 12-1.9 5.5-11 11-13 9.9-2.3-.91 2.2-8.1.93-12-1.2-3.7-8.2-3.9-8.6-5.8z" fill="none" stroke="#808000" stroke-dasharray="0.537828, 0.537828" stroke-width=".54"/>
    <path d="m82 189v-45" fill="#fff" marker-end="url(#Triangle)" stroke="#000" stroke-width=".28"/>
    <path d="m79 186h45" fill="#fff" marker-end="url(#Triangle)" stroke="#000" stroke-width=".28"/>
   </g>
   <text x="115.26176" y="189.63385" fill="#000000" font-family="sans-serif" font-size="3px" stroke-width=".074" style="line-height:1.25" xml:space="preserve"><tspan x="115.26176" y="189.63385" stroke-width=".074">Easting</tspan></text>
   <text x="67.922836" y="146.22646" fill="#000000" font-family="sans-serif" font-size="3px" stroke-width=".074" style="line-height:1.25" xml:space="preserve"><tspan x="67.922836" y="146.22646" stroke-width=".074">Northing</tspan></text>
   <circle cx="82" cy="186" r="1.2" fill="#f00" fill-rule="evenodd" stroke-width=".15"/>
   <text x="83.572289" y="189.3105" fill="#ff0000" font-family="sans-serif" font-size="3px" stroke-width=".074" style="line-height:1.25" xml:space="preserve"><tspan x="83.572289" y="189.3105" fill="#ff0000" stroke-width=".074">Origin</tspan></text>
   <path transform="matrix(.56 0 0 -.56 27 203)" d="m100 37c-.36-2 5.9-5.7 12-4.7 5.8 1 11 6.8 9.3 12-1.9 5.5-11 11-13 9.9-2.3-.91 2.2-8.1.93-12-1.2-3.7-8.2-3.9-8.6-5.8z" fill="none" stroke="#808000"/>
  </g>
  <g transform="translate(14 3.5)">
   <text x="155.92319" y="200.67494" fill="#000000" font-family="sans-serif" font-size="5.3px" stroke-width=".13" style="line-height:1.25" xml:space="preserve"><tspan x="155.92319" y="200.67494" stroke-width=".13">Step 3</tspan></text>
   <g>
    <path transform="matrix(.56 0 0 .56 88 127)" d="m100 37c-.36-2 5.9-5.7 12-4.7 5.8 1 11 6.8 9.3 12-1.9 5.5-11 11-13 9.9-2.3-.91 2.2-8.1.93-12-1.2-3.7-8.2-3.9-8.6-5.8z" fill="none" stroke="#00f"/>
    <path d="m143 141v47" fill="#fff" marker-end="url(#Triangle)" stroke="#000" stroke-width=".3"/>
    <path d="m140 144h47" fill="#fff" marker-end="url(#Triangle)" stroke="#000" stroke-width=".3"/>
   </g>
   <text x="184.96751" y="148.15506" fill="#000000" font-family="sans-serif" font-size="3.1px" stroke-width=".078" style="line-height:1.25" xml:space="preserve"><tspan x="184.96751" y="148.15506" stroke-width=".078">x</tspan></text>
   <text x="139.12581" y="187.96558" fill="#000000" font-family="sans-serif" font-size="3.1px" stroke-width=".078" style="line-height:1.25" xml:space="preserve"><tspan x="139.12581" y="187.96558" stroke-width=".078">y</tspan></text>
   <circle cx="143" cy="144" r="1.3" fill="#f00" fill-rule="evenodd" stroke-width=".16"/>
   <text x="145.00084" y="142.51036" fill="#ff0000" font-family="sans-serif" font-size="3.1px" stroke-width=".078" style="line-height:1.25" xml:space="preserve"><tspan x="145.00084" y="142.51036" fill="#ff0000" stroke-width=".078">Origin</tspan></text>
   <text transform="translate(116 -20)" x="40.969841" y="173.35275" fill="#0000ff" font-family="sans-serif" font-size="2.1px" stroke-width=".066" style="inline-size:26.8954;line-height:1.25;white-space:pre" xml:space="preserve"><tspan x="40.969841" y="173.35275">Plot shape in cavas with </tspan><tspan x="40.969841" y="175.9986">output from previous step. </tspan><tspan x="40.969841" y="178.64444">The shape now appears in </tspan><tspan x="40.969841" y="181.29029">the correct orientation, </tspan><tspan x="40.969841" y="183.93613">with its top-left bounding </tspan><tspan x="40.969841" y="186.58197">box corner aligned to the </tspan><tspan x="40.969841" y="189.22782">canvas origin</tspan></text>
  </g>
 </g>
</svg>
